PathFileType	4	(X/Y/Z)	pose_F01_0-75.trc
DataRate	CameraRate	NumFrames	NumMarkers	Units	OrigDataRate	OrigDataStartFrame	OrigNumFrames
30	30	7	21	m	30	53	75
Frame#	Time	CHip			RHip			RKnee			RAnkle			RBigToe			RSmallToe			RHeel			LHip			LKnee			LAnkle			LBigToe			LSmallToe			LHeel			Neck			Nose			RShoulder			RElbow			RWrist			LShoulder			LElbow			LWrist			
		X1	Y1	Z1	X2	Y2	Z2	X3	Y3	Z3	X4	Y4	Z4	X5	Y5	Z5	X6	Y6	Z6	X7	Y7	Z7	X8	Y8	Z8	X9	Y9	Z9	X10	Y10	Z10	X11	Y11	Z11	X12	Y12	Z12	X13	Y13	Z13	X14	Y14	Z14	X15	Y15	Z15	X16	Y16	Z16	X17	Y17	Z17	X18	Y18	Z18	X19	Y19	Z19	X20	Y20	Z20	X21	Y21	Z21	
53	1.7666666666666666	-0.28650720112428624	1.8802782281772346	-0.48480932539669797	-0.29190048518298	1.8740430541534376	-0.42506000779168207	-0.2850859147901733	1.7294637345574602	-0.3725111901997333	-0.3121962184021958	1.5997982009587115	-0.24468169128039394	-0.287129092411478	1.5548365333542449	-0.287376205812439	-0.5351766979456776	1.5352070378533818	-0.8909142772935671	-0.3226050766020267	1.5931093381481183	-0.22703681212606494	-0.27719940807560356	1.8839784857007682	-0.542746243450224	-0.27758319800519854	1.744803047852503	-0.549062324168159	-0.30400486933881266	1.6110603365251817	-0.5045410045557164	-0.2792481180358822	1.589181840753288	-0.564170109238782	-0.28193244059029865	1.593185395725228	-0.5743728414354804	-0.2898532003799791	1.604915759797605	-0.48179009494798103	-0.29185548177385806	2.0323436414855696	-0.47282672275384546	-0.2663429546347536	2.0887363531978616	-0.5083071689957722	-0.30525813977907135	2.0296075243449305	-0.3880807832018494	-0.27972240589959557	1.9776933688089866	-0.35938980580746377	-0.28495811365549367	2.0331031291587656	-0.3503509838314011	-0.2792201217618049	2.0355462825880934	-0.559106568437221	-0.272830447402544	1.9622594964072553	-0.599215643884576	-0.25025825223070874	2.018611062053987	-0.6768948187177936
54	1.8	-0.2844809091162196	1.880317508577098	-0.46968425875478675	-0.2896001589730423	1.874846131648084	-0.41002906524643323	-0.2925228169080963	1.7300921738521609	-0.35497746607523895	-0.3150937403138972	1.5936054040053476	-0.24021519624040638	-0.28741892403261476	1.5569988519750169	-0.2872306713889354	-0.29289030512175557	1.5602661334919956	-0.24713426316226295	-0.32707577329721627	1.591717488391846	-0.226404543108167	-0.27953949715425275	1.882743677649882	-0.5318833994898887	-0.28332567835347855	1.7422846455842382	-0.529670499862465	-0.3060259794968348	1.611198246789665	-0.5023368784120467	-0.27998611026156456	1.5878068828273182	-0.5587695980354092	-0.2807347435083609	1.5919624987880572	-0.5711918194165323	-0.2898532003799791	1.604915759797605	-0.48179009494798103	-0.2917660750012634	2.0320731044419693	-0.4642877300900942	-0.2711617245225274	2.0909157310410356	-0.499303011435841	-0.3019867349825825	2.0278665900373234	-0.37781732669835416	-0.28824048022795923	1.9668154573196965	-0.3297046445682359	-0.2885095172397568	2.0280826337862154	-0.3250852838830016	-0.2853159820510674	2.0374371675026737	-0.5446164922006415	-0.280313799705419	1.9624009359024879	-0.5787153843576387	-0.25490308820908425	2.008646240759303	-0.6802932066311418
55	1.8333333333333333	-0.28620550792211924	1.8820662172492573	-0.45031351123585034	-0.2954789208434437	1.8766276019909625	-0.3810370964999084	-0.29419482492486065	1.7363394161033137	-0.33068355777131214	-0.31478749871929235	1.5912403241275388	-0.2403599400584796	-0.2875148106936038	1.5567345609442853	-0.2871273356362633	-0.5351066212883181	1.5343697906302622	-0.8910639552952332	-0.3244144269943783	1.5852728367949793	-0.2289809497560422	-0.27554991503422577	1.8857299675696302	-0.5105142649473025	-0.2843400643844681	1.7446503844810286	-0.5157085060967508	-0.3052731525652631	1.613044825656473	-0.498892935607747	-0.2795500240525397	1.5909611150769771	-0.5552378531396462	-0.2831695911605032	1.5943149105239147	-0.5687956317678583	-0.2898532003799791	1.604915759797605	-0.48179009494798103	-0.29606110164768723	2.035148143412447	-0.4388175410051048	-0.269094593409446	2.0927475918337004	-0.4851082285223123	-0.30366149489990657	2.031255669395681	-0.3543813382380658	-0.29855189836398943	1.9510300440470685	-0.31056533351215687	-0.2798889844730737	2.0115629569428646	-0.29631003535513956	-0.28819522090974603	2.0395424675004916	-0.5290956351789535	-0.28459866175876264	1.9596921678197952	-0.5569871640384507	-0.252171661308799	1.9811690106125937	-0.6749399871874757
56	1.8666666666666667	-0.29125893262978336	1.8786933557401997	-0.4228670179942946	-0.29829508981604164	1.8770826414609716	-0.3647331149200023	-0.3033322518321442	1.7372998873927927	-0.31100764140357084	-0.314707296022002	1.593719894225812	-0.24055981078372884	-0.2873522050871294	1.556338490264943	-0.28672501301604725	-0.5362983442610124	1.5330696635315018	-0.8935286175320405	-0.3248349568081726	1.5884452805872842	-0.22856909215234	-0.2852167247047443	1.8815604176295808	-0.48733192896008243	-0.28684621452789244	1.748650370827771	-0.5048193682320398	-0.3053852665685225	1.6137287168249144	-0.4988385776526956	-0.27872604290226555	1.5892160218508067	-0.5514142688377162	-0.28354823972225596	1.5935459683422166	-0.5682240793077886	-0.30840805210732025	1.59957326790164	-0.48071013649105226	-0.2976935843156018	2.0348528318799195	-0.4281574926915513	-0.2667414049755281	2.098828172985427	-0.4721689708128149	-0.3086862721373878	2.033183212681378	-0.3400765542023173	-0.3042904218957251	1.9511936465243342	-0.2905374036990042	-0.2838644600186415	1.9665396482248991	-0.2958127876291322	-0.286270856687113	2.037917988793187	-0.5146210595737513	-0.2910834440486552	1.9588261401533467	-0.533702122079779	-0.25551030790355217	1.9547157303750575	-0.660988342770477
57	1.9	-0.29558754041692203	1.8818924701787285	-0.40495860768222486	-0.30318088163236556	1.8790812712922884	-0.3412416728057511	-0.30537433265971203	1.7380364961604486	-0.3038158297695746	-0.3158796893520118	1.592268077099135	-0.2390119033161261	-0.2873873783279436	1.5563489758186715	-0.28675907904271447	-0.5364296152727684	1.5325649073324186	-0.8934625212816281	-0.3244511311503819	1.5860538057856572	-0.22861750089421973	-0.2840113760388389	1.8851465341241522	-0.46747509409750587	-0.29358238766718675	1.7471695011151132	-0.4839088240220932	-0.30529914803297964	1.613522221452426	-0.4988474735905262	-0.2781734579240973	1.588980111525362	-0.5521068148315049	-0.28284660323779337	1.5954960762642192	-0.5692106266716277	-0.3068024314668606	1.6016007797774963	-0.4828459077154077	-0.29635228014912907	2.035721049081065	-0.41703726832999277	-0.27032453269114276	2.099742587223793	-0.45939451376320045	-0.30578933506583	2.0362719914737943	-0.3256039756446501	-0.30455223687295574	1.957648266147287	-0.27842377268105123	-0.27009531941280396	1.9354583663877836	-0.2560341833228083	-0.2842932870108464	2.039006922306021	-0.508592611510848	-0.29402316280603885	1.957059215749597	-0.5257687826678575	-1.2175940880176588	1.853262564594199	0.3451402939049062
58	1.9333333333333333	-0.29755329949117254	1.8874084735365861	-0.3894117217612024	-0.30102070390692126	1.8840258747421597	-0.32990965674946754	-0.3108784968902129	1.7395912922126349	-0.2832877354281078	-0.31522848448741414	1.5907019354895024	-0.23478742009367817	-0.2873141387112641	1.5559493352964302	-0.287192654855362	-0.5361250191029252	1.5350488497849202	-0.8935035867571968	-0.32534317268291346	1.5855252984761752	-0.2230669605587037	-0.28726179383189115	1.8891623523796455	-0.4548763168199653	-0.2945401311859764	1.7536365896079946	-0.47047746440677496	-0.3065426927621269	1.6154677032536855	-0.4932679412023892	-0.2796559679955447	1.58889614628719	-0.5545977892765396	-0.28315562695597524	1.5943895862426165	-0.5687762986586081	-0.30847464951893494	1.599822770129816	-0.48055282794313103	-0.2967792454272601	2.0367263746561	-0.4031984973388579	-0.2729840837291576	2.0991146557130835	-0.4437560436157929	-0.305876673763275	2.0371650220911564	-0.3117847532264488	-0.30952388430802846	1.9577639947634884	-0.25769880926357314	-0.27918645473894216	1.8907573645305569	-0.21052606323467685	-0.2871137048767093	2.037200089798573	-0.49229089268158444	-0.289747202475242	1.959087483286739	-0.5214994729619822	-0.2644093897851677	1.8973246021525882	-0.6130873717396561
59	1.9666666666666666	-0.29904888112477923	1.8841256082993807	-0.3778097854698448	-0.31095083853461547	1.8810825647880398	-0.3131951676346556	-0.31090466025432634	1.7373399576917143	-0.2687758909728626	-0.31983665998868194	1.5944288500057806	-0.23448343240886277	-0.2890057059642591	1.5577857881040493	-0.2852255417432413	-0.5352445622725888	1.5353729804919811	-0.8907424853721148	-0.3266332472255608	1.5880437127841893	-0.2265428138386855	-0.29404944201048094	1.887881259519534	-0.44251702898243156	-0.30025968020220345	1.747192264963843	-0.463261122358047	-0.3069790012888821	1.6184832114680723	-0.4927088415895615	-0.28061205026574604	1.5910721633732514	-0.549721752818367	-0.28533091715439957	1.5947794097833377	-0.5665794178323251	-0.3094313798022542	1.6030574135790787	-0.47555676461075447	-0.3040362067268107	2.0361530819017597	-0.38635424361805587	-0.2745022054174708	2.103188297608959	-0.43343225135110325	-0.31376728474618587	2.0380040470753706	-0.2986600434340181	-0.3123007243851415	1.9546720606444072	-0.25010543804850316	-0.30506133868552565	1.8746781296620063	-0.18715980171142046	-0.29183635410340286	2.0391128209761438	-0.4748943675367208	-0.29381826007274253	1.9536285849355528	-0.49940938205320606	-0.28939843658992	1.8830528340759554	-0.5552078151856507
